<svg width="74.000000" height="70.000000" viewBox="0 0 74 70" fill="none" xmlns="http://www.w3.org/2000/svg" xmlns:xlink="http://www.w3.org/1999/xlink">
	<desc>
			Created with Pixso.
	</desc>
	<defs/>
	<path d="M5.1084 31.5L68.9729 31.5C68.9729 30.8999 69.0731 30.3 69.0731 29.6001L69.0731 28.3999C68.3713 12.7 54.3362 0 37.093 0C19.7495 0 5.71436 12.7 5.01257 28.5L5.01257 29.7L5.01257 29.7729C5.01233 30.3486 5.01221 30.9243 5.1084 31.5ZM37.093 3C52.7322 3 65.5643 14.3 66.1659 28.5L8.02014 28.5C8.62158 14.3999 21.4537 3 37.093 3ZM29.2734 12.2C30.3253 12.2 31.1781 11.3047 31.1781 10.2C31.1781 9.09546 30.3253 8.19995 29.2734 8.19995C28.2214 8.19995 27.3687 9.09546 27.3687 10.2C27.3687 11.3047 28.2214 12.2 29.2734 12.2ZM46.7172 10.2C46.7172 11.3047 45.8643 12.2 44.8124 12.2C43.7604 12.2 42.9076 11.3047 42.9076 10.2C42.9076 9.09546 43.7604 8.19995 44.8124 8.19995C45.8643 8.19995 46.7172 9.09546 46.7172 10.2ZM38.9978 15.3C38.9978 16.4045 38.145 17.3 37.093 17.3C36.041 17.3 35.1882 16.4045 35.1882 15.3C35.1882 14.1953 36.041 13.3 37.093 13.3C38.145 13.3 38.9978 14.1953 38.9978 15.3ZM21.0527 42.5L15.6392 38.3999L10.3259 42.5L4.11035 37.8L5.81458 35.3L10.3259 38.7L15.6392 34.6001L21.0527 38.7L26.3661 34.6001L31.6794 38.7L36.9927 34.6001L42.4062 38.7L47.7196 34.6001L53.033 38.7L58.4465 34.6001L63.7599 38.7L68.2711 35.3L69.9755 37.8L63.7599 42.5L58.4465 38.3999L53.033 42.5L47.7196 38.3999L42.4062 42.5L36.9927 38.3999L31.6794 42.5L26.3661 38.3999L21.0527 42.5ZM70.0757 46.7L4.11035 46.7C1.80457 46.7 0 48.6001 0 51L0 54.5C0 56.8999 1.90479 58.8 4.11035 58.8L5.01257 58.8L5.01257 59.8999C5.01257 65.3999 9.32336 70 14.6367 70L59.3488 70C64.6621 70 68.9729 65.5 68.9729 59.8999L68.9729 58.8L69.8751 58.8C72.1809 58.8 73.9855 56.8999 73.9855 54.5L73.9855 51C74.186 48.7 72.2812 46.7 70.0757 46.7ZM71.2787 54.5C71.2787 55.2 70.6771 55.8 70.0757 55.8L4.01001 55.8C3.30835 55.8 2.80701 55.2 2.80701 54.5L2.80701 51C2.80701 50.3 3.40857 49.7 4.01001 49.7L69.9755 49.7C70.6772 49.7 71.1785 50.3 71.1785 51C71.2787 51 71.2787 54.5 71.2787 54.5ZM66.1659 59.8999C66.1659 63.8 63.1583 66.8999 59.449 66.8999L14.6367 66.8999C10.9274 66.8999 7.9198 63.7 7.9198 59.8999L7.9198 58.8L66.1659 58.8L66.1659 59.8999Z" fill="#83B3D3" fill-opacity="1.000000" fill-rule="evenodd"/>
</svg>
