<svg width="64.000000" height="76.000000" viewBox="0 0 64 76" fill="none" xmlns="http://www.w3.org/2000/svg" xmlns:xlink="http://www.w3.org/1999/xlink">
	<desc>
			Created with Pixso.
	</desc>
	<defs/>
	<path d="M61.1001 22.4624L61 22.4624L36.3 22.4624C50.1001 15.5576 51.2 11.1545 50.7 8.75293C49.5 4.75 45 1.74805 40.7 3.34912C35.1001 5.45068 33.6001 13.7563 32.1001 19.7605C30.1001 13.6562 28.3 5.95093 23.8999 2.0481C22.6001 0.94751 20.8 -0.253418 18.1001 0.046875C14.1001 0.447021 8.30005 5.45068 10.6001 11.0544C12.8999 16.4583 20.3 19.8606 25.2 22.5625L3.19995 22.5625L2.8999 22.5625C1.30005 22.5625 0 23.8635 0 25.4646L0 36.7725C0 38.3735 1.30005 39.6746 2.8999 39.6746L3.19995 39.6746L3.19995 72.9978L3.19995 75.3997L3.19995 76L61 76L61 75.4998L61 72.9978L61 39.5745L61.1001 39.5745C62.7 39.5745 64 38.2734 64 36.6724L64 25.3645C64 23.7634 62.7 22.4624 61.1001 22.4624ZM42.3999 5.85083C44.5 5.55054 47.3999 7.15186 47.7 9.05298C48.1001 11.855 44.3 14.3567 42.6001 15.4575C40.1001 17.1587 37.7 18.0593 35.3 19.5605C36.2 15.8579 37.8 6.55127 42.3999 5.85083ZM19.5 15.8579C17.3 14.3567 13 11.4548 13.1001 8.05249C13.2 4.44995 18.8 1.44775 21.8999 4.14966C25.8 7.552 27.6001 15.2573 29 20.7612C25.8 19.2603 22.7 17.9592 19.5 15.8579ZM25.5 72.9978L6.1001 72.9978L6.1001 39.5745L25.5 39.5745L25.5 72.9978ZM25.5 36.4724L3 36.4724L3 25.4646L25.5 25.4646L25.5 36.4724ZM35.7 36.4724L35.7 39.4744L35.7 72.9978L28.5 72.9978L28.5 39.5745L28.5 36.5723L28.5 25.5647L35.7 25.5647L35.7 36.4724ZM58 72.9978L38.6001 72.9978L38.6001 39.5745L58 39.5745L58 72.9978ZM60.8999 36.4724L38.6001 36.4724L38.6001 25.4646L60.8999 25.4646L60.8999 36.4724Z" fill="#83B3D3" fill-opacity="1.000000" fill-rule="nonzero"/>
</svg>
